# Blender v2.78 (sub 0) OBJ File: ''
# www.blender.org
mtllib Tree.mtl
o Cylinder.001
v 0.000000 2.171806 0.000000
v 1.099710 3.313777 0.798976
v -0.420043 3.313777 1.292783
v -1.359313 3.313786 0.000000
v -0.420043 3.313777 -1.292783
v 1.099710 3.313777 -0.798976
v 0.420043 5.161571 1.292783
v -1.099710 5.161571 0.798976
v -1.099710 5.161571 -0.798976
v 0.420043 5.161571 -1.292783
v 1.359313 5.161562 0.000000
v 0.000000 6.303541 0.000000
v -0.246893 2.480335 0.759873
v 0.646388 2.480335 0.469623
v 0.399498 3.151569 1.229504
v 1.292781 3.151573 0.000000
v 0.646388 2.480335 -0.469623
v -0.798983 2.480340 0.000000
v -1.045883 3.151572 0.759875
v -0.246893 2.480335 -0.759873
v -1.045883 3.151572 -0.759875
v 0.399498 3.151569 -1.229504
v 1.445380 4.237674 0.469625
v 1.445380 4.237674 -0.469625
v 0.000000 4.237674 1.519760
v 0.893293 4.237674 1.229511
v -1.445380 4.237674 0.469625
v -0.893293 4.237674 1.229511
v -0.893293 4.237674 -1.229511
v -1.445380 4.237674 -0.469625
v 0.893293 4.237674 -1.229511
v 0.000000 4.237674 -1.519760
v 1.045883 5.323775 0.759875
v -0.399498 5.323778 1.229504
v -1.292781 5.323775 0.000000
v -0.399498 5.323778 -1.229504
v 1.045883 5.323775 -0.759875
v 0.246893 5.995013 0.759873
v 0.798983 5.995008 0.000000
v -0.646388 5.995013 0.469623
v -0.646388 5.995013 -0.469623
v 0.246893 5.995013 -0.759873
vt 0.7381 0.1254
vt 0.8074 0.1254
vt 0.8074 0.1946
vt 0.7381 0.1254
vt 0.8074 0.1946
vt 0.8074 0.1254
vt 0.8074 0.1946
vt 0.8074 0.1254
vt 0.8074 0.1946
vt 0.8074 0.1254
vt 0.8074 0.1946
vt 0.8074 0.1254
vt 0.8074 0.1946
vt 0.7381 0.1254
vt 0.8074 0.1254
vt 0.8074 0.1946
vt 0.7381 0.1254
vt 0.8074 0.1254
vt 0.8074 0.1946
vt 0.7381 0.1254
vt 0.8074 0.1254
vt 0.8074 0.1946
vt 0.7381 0.1254
vt 0.8074 0.1254
vt 0.8074 0.1946
vt 0.8074 0.1254
vt 0.8074 0.1946
vt 0.8074 0.1254
vt 0.8074 0.1946
vt 0.8074 0.1254
vt 0.8074 0.1946
vt 0.8074 0.1254
vt 0.8074 0.1946
vt 0.8074 0.1254
vt 0.8074 0.1946
vt 0.7381 0.1254
vt 0.8074 0.1254
vt 0.8074 0.1946
vt 0.7381 0.1254
vt 0.8074 0.1254
vt 0.8074 0.1946
vt 0.7381 0.1254
vt 0.8074 0.1254
vt 0.8074 0.1946
vt 0.7381 0.1254
vt 0.8074 0.1254
vt 0.8074 0.1946
vt 0.7381 0.1254
vt 0.8074 0.1254
vt 0.8074 0.1946
vt 0.7381 0.1254
vt 0.8074 0.1254
vt 0.8074 0.1946
vt 0.7381 0.1254
vt 0.8074 0.1254
vt 0.7381 0.1254
vt 0.8074 0.1254
vt 0.7381 0.1254
vt 0.8074 0.1254
vt 0.7381 0.1254
vt 0.8074 0.1254
vt 0.7381 0.1254
vt 0.8074 0.1254
vt 0.7381 0.1254
vt 0.8074 0.1254
vt 0.7381 0.1254
vt 0.8074 0.1254
vt 0.7381 0.1254
vt 0.8074 0.1254
vt 0.7381 0.1254
vt 0.8074 0.1254
vt 0.7381 0.1254
vt 0.8074 0.1946
vt 0.8074 0.1946
vt 0.7381 0.1254
vt 0.7381 0.1254
vt 0.8074 0.1946
vt 0.8074 0.1946
vt 0.7381 0.1254
vt 0.7381 0.1254
vt 0.8074 0.1946
vt 0.8074 0.1946
vt 0.7381 0.1254
vt 0.7381 0.1254
vt 0.8074 0.1946
vt 0.8074 0.1946
vt 0.7381 0.1254
vt 0.7381 0.1254
vt 0.8074 0.1946
vt 0.8074 0.1946
vt 0.7381 0.1254
vt 0.8074 0.1254
vt 0.7381 0.1254
vt 0.8074 0.1254
vt 0.8074 0.1254
vt 0.7381 0.1254
vt 0.8074 0.1254
vt 0.8074 0.1254
vt 0.7381 0.1254
vt 0.8074 0.1254
vt 0.8074 0.1254
vt 0.7381 0.1254
vt 0.8074 0.1254
vt 0.8074 0.1254
vt 0.7381 0.1254
vt 0.8074 0.1254
vt 0.7381 0.1254
vt 0.8074 0.1946
vt 0.8074 0.1946
vt 0.7381 0.1254
vt 0.8074 0.1946
vt 0.8074 0.1946
vt 0.7381 0.1254
vt 0.8074 0.1946
vt 0.8074 0.1946
vt 0.7381 0.1254
vt 0.8074 0.1254
vt 0.7381 0.1254
vt 0.8074 0.1254
vt 0.8074 0.1946
vt 0.8074 0.1946
vn 0.1331 -0.9025 0.4097
vn 0.7833 -0.5445 0.2998
vn -0.3485 -0.9025 0.2532
vn -0.3485 -0.9025 -0.2532
vn 0.1331 -0.9025 -0.4097
vn 0.9285 -0.2494 0.2750
vn 0.0254 -0.2494 0.9681
vn -0.9128 -0.2494 0.3233
vn -0.5896 -0.2494 -0.7683
vn 0.5485 -0.2494 -0.7981
vn 0.8055 -0.0928 0.5852
vn -0.3077 -0.0928 0.9470
vn -0.9957 -0.0928 0.0000
vn -0.3077 -0.0928 -0.9470
vn 0.8055 -0.0928 -0.5852
vn 0.4575 0.5445 0.7030
vn -0.5272 0.5445 0.6523
vn -0.7833 0.5445 -0.2998
vn 0.0431 0.5445 -0.8376
vn 0.8100 0.5445 -0.2178
vn 0.3485 0.9025 -0.2532
vn 0.5827 0.6937 -0.4234
vn 0.4575 0.5445 -0.7030
vn -0.1331 0.9025 -0.4097
vn -0.2226 0.6937 -0.6851
vn -0.5272 0.5445 -0.6523
vn -0.4308 0.9025 0.0000
vn -0.7203 0.6937 0.0000
vn -0.7833 0.5445 0.2998
vn -0.1331 0.9025 0.4097
vn -0.2226 0.6937 0.6851
vn 0.0431 0.5445 0.8376
vn 0.3485 0.9025 0.2532
vn 0.5827 0.6937 0.4234
vn 0.8100 0.5445 0.2178
vn 0.9128 0.2494 -0.3233
vn 0.8011 0.1391 -0.5821
vn 0.5896 0.2494 -0.7683
vn -0.0254 0.2494 -0.9681
vn -0.3060 0.1391 -0.9418
vn -0.5485 0.2494 -0.7981
vn -0.9285 0.2494 -0.2750
vn -0.9903 0.1391 0.0000
vn -0.9285 0.2494 0.2750
vn -0.5485 0.2494 0.7981
vn -0.3060 0.1391 0.9418
vn -0.0254 0.2494 0.9681
vn 0.5896 0.2494 0.7683
vn 0.8011 0.1391 0.5821
vn 0.9128 0.2494 0.3233
vn 0.3077 0.0928 -0.9470
vn 0.3060 -0.1391 -0.9418
vn 0.0254 -0.2494 -0.9681
vn -0.8055 0.0928 -0.5852
vn -0.8011 -0.1391 -0.5821
vn -0.9128 -0.2494 -0.3233
vn -0.8055 0.0928 0.5852
vn -0.8011 -0.1391 0.5821
vn -0.5896 -0.2494 0.7683
vn 0.3077 0.0928 0.9470
vn 0.3060 -0.1391 0.9418
vn 0.5485 -0.2494 0.7981
vn 0.9957 0.0928 0.0000
vn 0.9903 -0.1391 0.0000
vn 0.9285 -0.2494 -0.2750
vn 0.5272 -0.5445 -0.6523
vn 0.2226 -0.6937 -0.6851
vn -0.0431 -0.5445 -0.8376
vn -0.4575 -0.5445 -0.7030
vn -0.5827 -0.6937 -0.4234
vn -0.8100 -0.5445 -0.2178
vn -0.8100 -0.5445 0.2178
vn -0.5827 -0.6937 0.4234
vn -0.4575 -0.5445 0.7030
vn 0.7833 -0.5445 -0.2998
vn 0.7203 -0.6936 0.0000
vn 0.4308 -0.9025 0.0000
vn -0.0431 -0.5445 0.8376
vn 0.2226 -0.6937 0.6851
vn 0.5272 -0.5445 0.6523
usemtl None
s off
f 1/1/1 14/2/1 13/3/1
f 2/4/2 14/2/2 16/5/2
f 1/1/3 13/6/3 18/7/3
f 1/1/4 18/8/4 20/9/4
f 1/1/5 20/10/5 17/11/5
f 2/4/6 16/12/6 23/13/6
f 3/14/7 15/15/7 25/16/7
f 4/17/8 19/18/8 27/19/8
f 5/20/9 21/21/9 29/22/9
f 6/23/10 22/24/10 31/25/10
f 2/4/11 23/26/11 26/27/11
f 3/14/12 25/28/12 28/29/12
f 4/17/13 27/30/13 30/31/13
f 5/20/14 29/32/14 32/33/14
f 6/23/15 31/34/15 24/35/15
f 7/36/16 33/37/16 38/38/16
f 8/39/17 34/40/17 40/41/17
f 9/42/18 35/43/18 41/44/18
f 10/45/19 36/46/19 42/47/19
f 11/48/20 37/49/20 39/50/20
f 39/51/21 42/52/21 12/53/21
f 39/51/22 37/49/22 42/47/22
f 37/54/23 10/55/23 42/47/23
f 42/56/24 41/57/24 12/53/24
f 42/56/25 36/46/25 41/44/25
f 36/58/26 9/59/26 41/44/26
f 41/60/27 40/61/27 12/53/27
f 41/60/28 35/43/28 40/41/28
f 35/62/29 8/63/29 40/41/29
f 40/64/30 38/65/30 12/53/30
f 40/64/31 34/40/31 38/38/31
f 34/66/32 7/67/32 38/38/32
f 38/68/33 39/69/33 12/53/33
f 38/68/34 33/37/34 39/50/34
f 33/70/35 11/71/35 39/50/35
f 24/72/36 37/49/36 11/73/36
f 24/72/37 31/34/37 37/74/37
f 31/75/38 10/55/38 37/74/38
f 32/76/39 36/46/39 10/77/39
f 32/76/40 29/32/40 36/78/40
f 29/79/41 9/59/41 36/78/41
f 30/80/42 35/43/42 9/81/42
f 30/80/43 27/30/43 35/82/43
f 27/83/44 8/63/44 35/82/44
f 28/84/45 34/40/45 8/85/45
f 28/84/46 25/28/46 34/86/46
f 25/87/47 7/67/47 34/86/47
f 26/88/48 33/37/48 7/89/48
f 26/88/49 23/26/49 33/90/49
f 23/91/50 11/71/50 33/90/50
f 31/75/51 32/92/51 10/77/51
f 31/75/52 22/24/52 32/33/52
f 22/93/53 5/94/53 32/33/53
f 29/79/54 30/95/54 9/81/54
f 29/79/55 21/21/55 30/31/55
f 21/96/56 4/97/56 30/31/56
f 27/83/57 28/98/57 8/85/57
f 27/83/58 19/18/58 28/29/58
f 19/99/59 3/100/59 28/29/59
f 25/87/60 26/101/60 7/89/60
f 25/87/61 15/15/61 26/27/61
f 15/102/62 2/103/62 26/27/62
f 23/91/63 24/104/63 11/73/63
f 23/91/64 16/12/64 24/35/64
f 16/105/65 6/106/65 24/35/65
f 17/107/66 22/24/66 6/108/66
f 17/107/67 20/10/67 22/109/67
f 20/110/68 5/94/68 22/109/68
f 20/110/69 21/21/69 5/111/69
f 20/110/70 18/8/70 21/112/70
f 18/113/71 4/97/71 21/112/71
f 18/113/72 19/18/72 4/114/72
f 18/113/73 13/6/73 19/115/73
f 13/116/74 3/100/74 19/115/74
f 16/105/75 17/117/75 6/108/75
f 16/105/76 14/2/76 17/11/76
f 14/118/77 1/119/77 17/11/77
f 13/116/78 15/15/78 3/120/78
f 13/116/79 14/2/79 15/121/79
f 14/118/80 2/103/80 15/121/80
o Cylinder
v -0.000000 0.024474 -0.817511
v -0.000000 4.264894 -0.485838
v 0.578068 0.024474 -0.578068
v 0.343539 4.264894 -0.343539
v 0.817511 0.024474 0.000000
v 0.485838 4.264894 0.000000
v 0.578068 0.024474 0.578068
v 0.343539 4.264894 0.343539
v -0.000000 0.024474 0.817511
v -0.000000 4.264894 0.485838
v -0.578068 0.024474 0.578068
v -0.343540 4.264894 0.343539
v -0.817511 0.024474 -0.000000
v -0.485838 4.264894 -0.000000
v -0.578068 0.024474 -0.578068
v -0.343540 4.264894 -0.343539
vt 0.8127 0.7268
vt 0.7371 0.7268
vt 0.7371 0.6512
vt 0.8127 0.6512
vt 0.8127 0.7268
vt 0.7371 0.7268
vt 0.7371 0.6512
vt 0.8127 0.6512
vt 0.8127 0.7268
vt 0.7371 0.7268
vt 0.7371 0.6512
vt 0.8127 0.6512
vt 0.8127 0.7268
vt 0.7371 0.7268
vt 0.7371 0.6512
vt 0.8127 0.6512
vt 0.8127 0.7268
vt 0.7371 0.7268
vt 0.7371 0.6512
vt 0.8127 0.6512
vt 0.8127 0.7268
vt 0.7371 0.7268
vt 0.7371 0.6512
vt 0.8127 0.6512
vt 0.7749 0.6512
vt 0.7482 0.6623
vt 0.7371 0.6890
vt 0.7482 0.7157
vt 0.7749 0.7268
vt 0.8016 0.7157
vt 0.8127 0.6890
vt 0.8016 0.6623
vt 0.8127 0.7268
vt 0.7371 0.7268
vt 0.7371 0.6512
vt 0.8127 0.6512
vt 0.8127 0.7268
vt 0.7371 0.7268
vt 0.7371 0.6512
vt 0.8127 0.6512
vt 0.7749 0.6512
vt 0.7482 0.6623
vt 0.7371 0.6890
vt 0.7482 0.7157
vt 0.7749 0.7268
vt 0.8016 0.7157
vt 0.8127 0.6890
vt 0.8016 0.6623
vn 0.3817 0.0721 -0.9215
vn 0.9215 0.0721 -0.3817
vn 0.9215 0.0721 0.3817
vn 0.3817 0.0721 0.9215
vn -0.3817 0.0721 0.9215
vn -0.9215 0.0721 0.3817
vn 0.0000 1.0000 0.0000
vn -0.9215 0.0721 -0.3817
vn -0.3817 0.0721 -0.9215
vn 0.0000 -1.0000 -0.0000
usemtl None
s off
f 43/122/81 44/123/81 46/124/81 45/125/81
f 45/126/82 46/127/82 48/128/82 47/129/82
f 47/130/83 48/131/83 50/132/83 49/133/83
f 49/134/84 50/135/84 52/136/84 51/137/84
f 51/138/85 52/139/85 54/140/85 53/141/85
f 53/142/86 54/143/86 56/144/86 55/145/86
f 46/146/87 44/147/87 58/148/87 56/149/87 54/150/87 52/151/87 50/152/87 48/153/87
f 55/154/88 56/155/88 58/156/88 57/157/88
f 57/158/89 58/159/89 44/160/89 43/161/89
f 43/162/90 45/163/90 47/164/90 49/165/90 51/166/90 53/167/90 55/168/90 57/169/90
